<svg width="16" height="16" viewBox="0 0 16 16" fill="none" xmlns="http://www.w3.org/2000/svg">
<g id="maki:arrow" clip-path="url(#clip0_37_337)">
<path id="Vector" d="M9.13236 2.57037C9.31988 2.3829 9.57419 2.27759 9.83936 2.27759C10.1045 2.27759 10.3588 2.3829 10.5464 2.57037L15.0464 7.07037C15.2338 7.2579 15.3391 7.51221 15.3391 7.77737C15.3391 8.04254 15.2338 8.29685 15.0464 8.48437L10.5464 12.9844C10.3578 13.1665 10.1052 13.2673 9.84295 13.265C9.58076 13.2628 9.32995 13.1576 9.14454 12.9722C8.95913 12.7868 8.85396 12.536 8.85168 12.2738C8.8494 12.0116 8.9502 11.759 9.13236 11.5704L11.8394 8.77737H2.33936C2.07414 8.77737 1.81979 8.67202 1.63225 8.48448C1.44471 8.29694 1.33936 8.04259 1.33936 7.77737C1.33936 7.51216 1.44471 7.2578 1.63225 7.07027C1.81979 6.88273 2.07414 6.77737 2.33936 6.77737H11.8394L9.13236 3.98437C8.94488 3.79685 8.83957 3.54254 8.83957 3.27737C8.83957 3.01221 8.94488 2.7579 9.13236 2.57037Z" fill="white"/>
</g>
<defs>
<clipPath id="clip0_37_337">
<rect width="15" height="15" fill="white" transform="translate(0.839355 0.277344)"/>
</clipPath>
</defs>
</svg>
