<svg width="37" height="38" viewBox="0 0 37 38" fill="none" xmlns="http://www.w3.org/2000/svg">
<g id="ri:instagram-fill">
<path id="Vector" d="M20.3403 3.92471C21.4405 3.92048 22.5408 3.93154 23.6407 3.95788L23.9332 3.96843C24.2709 3.98049 24.6041 3.99557 25.0067 4.01366C26.6109 4.08905 27.7055 4.34235 28.6659 4.71475C29.661 5.09772 30.4993 5.61637 31.3376 6.45467C32.1041 7.20794 32.6973 8.11911 33.076 9.12485C33.4484 10.0853 33.7017 11.1814 33.7771 12.7856C33.7952 13.1867 33.8103 13.5214 33.8223 13.8591L33.8314 14.1516C33.8582 15.251 33.8697 16.3508 33.8661 17.4505L33.8676 18.5753V20.5504C33.8713 21.6506 33.8597 22.7509 33.8329 23.8508L33.8239 24.1433C33.8118 24.481 33.7967 24.8142 33.7786 25.2168C33.7032 26.821 33.4469 27.9156 33.076 28.876C32.6986 29.8828 32.1052 30.7948 31.3376 31.5477C30.5837 32.3141 29.672 32.9073 28.6659 33.2861C27.7055 33.6585 26.6109 33.9118 25.0067 33.9872C24.6041 34.0053 24.2709 34.0204 23.9332 34.0324L23.6407 34.0415C22.5408 34.0683 21.4405 34.0799 20.3403 34.0762L19.2155 34.0777H17.2419C16.1417 34.0814 15.0414 34.0698 13.9415 34.043L13.649 34.034C13.2911 34.021 12.9332 34.0059 12.5755 33.9887C10.9713 33.9133 9.87667 33.657 8.91474 33.2861C7.90861 32.9082 6.99727 32.3149 6.24456 31.5477C5.47719 30.7943 4.88342 29.8825 4.50464 28.876C4.13224 27.9156 3.87894 26.821 3.80355 25.2168C3.78676 24.859 3.77168 24.5012 3.75832 24.1433L3.75078 23.8508C3.72299 22.7509 3.71042 21.6506 3.71309 20.5504V17.4505C3.70888 16.3508 3.71994 15.251 3.74626 14.1516L3.75681 13.8591C3.76888 13.5214 3.78395 13.1867 3.80204 12.7856C3.87743 11.1799 4.13073 10.0868 4.50314 9.12485C4.88214 8.11862 5.47707 7.20769 6.24607 6.45618C6.99826 5.68837 7.90903 5.09406 8.91474 4.71475C9.87667 4.34235 10.9698 4.08905 12.5755 4.01366L13.649 3.96843L13.9415 3.96089C15.0409 3.93311 16.1406 3.92054 17.2404 3.9232L20.3403 3.92471ZM18.7903 11.4633C17.7915 11.4492 16.7998 11.6337 15.8728 12.0062C14.9459 12.3787 14.1023 12.9317 13.3909 13.633C12.6796 14.3344 12.1147 15.1701 11.7292 16.0917C11.3436 17.0132 11.1451 18.0022 11.1451 19.0012C11.1451 20.0002 11.3436 20.9891 11.7292 21.9107C12.1147 22.8323 12.6796 23.668 13.3909 24.3694C14.1023 25.0707 14.9459 25.6237 15.8728 25.9962C16.7998 26.3687 17.7915 26.5532 18.7903 26.5391C20.7897 26.5391 22.7072 25.7448 24.1209 24.3311C25.5347 22.9173 26.329 20.9998 26.329 19.0004C26.329 17.0011 25.5347 15.0836 24.1209 13.6698C22.7072 12.2561 20.7897 11.4633 18.7903 11.4633ZM18.7903 14.4788C19.3912 14.4677 19.9882 14.5765 20.5465 14.7987C21.1049 15.021 21.6133 15.3523 22.0422 15.7732C22.471 16.1942 22.8117 16.6964 23.0443 17.2505C23.2769 17.8046 23.3967 18.3995 23.3968 19.0004C23.3969 19.6014 23.2773 20.1963 23.0449 20.7505C22.8125 21.3047 22.472 21.807 22.0432 22.2281C21.6145 22.6492 21.1062 22.9806 20.5479 23.2031C19.9897 23.4255 19.3927 23.5345 18.7918 23.5236C17.5922 23.5236 16.4417 23.0471 15.5935 22.1988C14.7452 21.3505 14.2687 20.2001 14.2687 19.0004C14.2687 17.8008 14.7452 16.6503 15.5935 15.8021C16.4417 14.9538 17.5922 14.4773 18.7918 14.4773L18.7903 14.4788ZM26.7059 9.20174C26.2195 9.22121 25.7595 9.42813 25.4222 9.77916C25.085 10.1302 24.8966 10.5981 24.8966 11.0849C24.8966 11.5717 25.085 12.0396 25.4222 12.3906C25.7595 12.7417 26.2195 12.9486 26.7059 12.968C27.2057 12.968 27.6851 12.7695 28.0385 12.416C28.392 12.0626 28.5905 11.5832 28.5905 11.0834C28.5905 10.5835 28.392 10.1042 28.0385 9.75073C27.6851 9.39729 27.2057 9.19873 26.7059 9.19873V9.20174Z" fill="white"/>
</g>
</svg>
