<svg width="31" height="32" viewBox="0 0 31 32" fill="none" xmlns="http://www.w3.org/2000/svg">
<g id="bi:linkedin" clip-path="url(#clip0_37_422)">
<path id="Vector" d="M0.156982 3.08267C0.156982 1.88968 1.14831 0.922852 2.37145 0.922852H28.097C29.3201 0.922852 30.3115 1.88968 30.3115 3.08267V28.9175C30.3115 30.1105 29.3201 31.0773 28.097 31.0773H2.37145C1.14831 31.0773 0.156982 30.1105 0.156982 28.9175V3.08267ZM9.47283 26.1659V12.5493H4.94778V26.1659H9.47283ZM7.21125 10.6891C8.7887 10.6891 9.77061 9.64504 9.77061 8.33709C9.74234 7.00086 8.79059 5.98504 7.2414 5.98504C5.69221 5.98504 4.68016 7.00275 4.68016 8.33709C4.68016 9.64504 5.66206 10.6891 7.18109 10.6891H7.21125ZM16.4611 26.1659V18.5613C16.4611 18.1543 16.4913 17.7472 16.6119 17.4569C16.938 16.6446 17.6824 15.8022 18.9338 15.8022C20.5716 15.8022 21.2255 17.0498 21.2255 18.8817V26.1659H25.7506V18.3559C25.7506 14.172 23.5192 12.227 20.5414 12.227C18.1404 12.227 17.0642 13.5463 16.4611 14.4754V14.5225H16.431C16.441 14.5068 16.451 14.4911 16.4611 14.4754V12.5493H11.938C11.9945 13.8271 11.938 26.1659 11.938 26.1659H16.4611Z" fill="white"/>
</g>
<defs>
<clipPath id="clip0_37_422">
<rect width="30.1545" height="30.1545" fill="white" transform="translate(0.156982 0.922852)"/>
</clipPath>
</defs>
</svg>
