<svg xmlns="http://www.w3.org/2000/svg" width="43" height="43" viewBox="0 0 43 43" fill="none">
  <g clip-path="url(#clip0_37_272)">
    <path d="M42.1689 21.1994C42.1689 31.3884 32.7284 39.6483 21.0845 39.6483C18.9962 39.6511 16.9166 39.38 14.8988 38.8418C13.3596 39.6219 9.82536 41.1189 3.87954 42.0941C3.35243 42.1784 2.95183 41.6302 3.16004 41.14C4.09302 38.9367 4.9364 36.0007 5.18942 33.3229C1.96086 30.0812 0 25.838 0 21.1994C0 11.0103 9.44057 2.75046 21.0845 2.75046C32.7284 2.75046 42.1689 11.0103 42.1689 21.1994ZM18.9602 17.9471C18.7865 17.6878 18.586 17.4475 18.3619 17.2302C18.0097 16.8675 17.5898 16.5774 17.1259 16.3763L17.1048 16.3658C16.4806 16.0759 15.8005 15.9266 15.1123 15.9283C12.5874 15.9283 10.5422 17.8944 10.5422 20.3217C10.5422 22.7464 12.5874 24.7126 15.1123 24.7126C16.0163 24.7126 16.857 24.4622 17.566 24.0273C17.2049 25.0526 16.5381 26.1463 15.4312 27.2427C15.3269 27.3445 15.2446 27.4665 15.1893 27.6013C15.134 27.7361 15.1068 27.8808 15.1095 28.0265C15.1123 28.1721 15.1448 28.3157 15.2051 28.4484C15.2654 28.581 15.3522 28.6999 15.4602 28.7977C15.9161 29.2194 16.6383 29.2062 17.0784 28.7713C20.5943 25.2687 20.6891 21.5025 19.5585 19.004C19.3924 18.6346 19.1921 18.2817 18.9602 17.9497V17.9471ZM28.9911 24.0273C28.6327 25.0526 27.9633 26.1463 26.8563 27.2427C26.7522 27.3447 26.6701 27.4668 26.615 27.6017C26.5599 27.7366 26.533 27.8814 26.536 28.027C26.539 28.1727 26.5717 28.3162 26.6322 28.4488C26.6928 28.5813 26.7798 28.7001 26.888 28.7977C27.3413 29.2194 28.0634 29.2062 28.5036 28.7713C32.0194 25.2687 32.1143 21.5025 30.9863 19.004C30.8193 18.6346 30.6181 18.2816 30.3854 17.9497C30.2118 17.6895 30.0113 17.4483 29.7871 17.2302C29.4349 16.8674 29.0149 16.5773 28.551 16.3763L28.5299 16.3658C27.9066 16.0763 27.2274 15.927 26.5401 15.9283C24.0178 15.9283 21.97 17.8944 21.97 20.3217C21.97 22.7464 24.0178 24.7126 26.5401 24.7126C27.4441 24.7126 28.2848 24.4622 28.9938 24.0273H28.9911Z" fill="#212227"/>
  </g>
  <defs>
    <clipPath id="clip0_37_272">
      <rect width="42.1689" height="42.1689" fill="white" transform="translate(0 0.11499)"/>
    </clipPath>
  </defs>
</svg>